<?xml version="1.0" encoding="utf-8"?>
<!-- Generator: Adobe Illustrator 16.0.0, SVG Export Plug-In . SVG Version: 6.00 Build 0)  -->
<!DOCTYPE svg PUBLIC "-//W3C//DTD SVG 1.1//EN" "http://www.w3.org/Graphics/SVG/1.1/DTD/svg11.dtd">
<svg version="1.1" id="Layer_1" xmlns="http://www.w3.org/2000/svg" xmlns:xlink="http://www.w3.org/1999/xlink" x="0px" y="0px"
	 width="841.889px" height="595.281px" viewBox="0 0 841.889 595.281" enable-background="new 0 0 841.889 595.281"
	 xml:space="preserve">
<g id="Group_66" transform="translate(6.308 -50.986)">
	<path id="Path_49" fill="#FFFFFF" d="M205.301,313.161c-5.407,55.533-10.212,111.026-16.85,166.548
		c-5.409,43.569-9.63,87.122-16.255,129.811c-2.153,10.425-3.555,20.989-4.194,31.614c8.994-2.658,18.305-4.092,27.684-4.26
		c9.582,0.124,19.102,1.558,28.296,4.26c1.193-17.927,1.79-34.979,2.411-52.92c1.199-28.171,2.996-55.532,4.192-83.685
		c1.822-32.457,4.22-64.061,6.029-96.498c3.604-50.442,8.429-100.854,12.643-151.231c28.296,82.849,57.793,164.813,85.481,247.671
		l46.354,136.663c7.477-2.123,15.395-2.123,22.866,0c42.733-132.364,87.879-263.036,133.639-393.696
		c9.028,131.528,21.059,262.194,25.277,393.696c16.165-2.264,32.438-3.686,48.751-4.26c16.52,0.572,32.999,1.994,49.372,4.26
		c-0.71-12.021-2.114-23.994-4.207-35.854c-4.815-49.542-10.238-99.071-14.459-148.606
		c-11.439-133.233-22.866-266.46-33.077-399.683c-14.467,4.397-29.822,4.989-44.584,1.721c-2.391-0.891-4.207-0.891-6.618-1.721
		c-33.091,103.292-68.011,204.956-104.729,305.728l-35.509,98.188C370.252,326.823,322.688,193.602,278.76,56.966
		c-8.056,2.3-16.335,3.726-24.693,4.253c-8.089-1.016-16.122-2.436-24.069-4.253L205.301,313.161z"/>
</g>
</svg>
